<?xml version="1.0" encoding="UTF-8"?>
<svg xmlns="http://www.w3.org/2000/svg" viewBox="0 0 107.63 84.09">
  <defs>
    <style>
      .cls-1 {
        fill: #fff;
      }

      .cls-2 {
        fill: #00a99d;
      }
    </style>
  </defs>
  <g id="brow">
    <g>
      <path d="M50.51,3.89c.17-.24-1.63-.66-.72-.81,2.92,1.51,5.79,3.14,8.43,5.12.56.05.17-.11.15-.36-.03-.37,0-.92-.26-1.18-.43-.43-2.54-1.4-3.27-1.86-.78-.49-1.59-1.01-2.28-1.62.16-.3.5.04.68.15,1.21.68,2.56,1.8,3.8,2.37.43.2.94.09,1.08.17.24.14.68,1.01,1.43.91l-.82.3c.51.54.83,1.22,1.27,1.81,1.73,2.39,3.37,3.96,5.42,6.08.21.22.27.59.3.62.12.11.54.05.4-.3-.3-.78-1.76-1.97-2.05-2.67-.04-.09-.05-.34.1-.3,1.51,1.61,2.68,3.5,3.92,5.32.71,1.04.65,1.27,1.14,2.15,1.05,1.89,2.41,3.82,3.16,5.86.1.28.61,1.31.11,1.43-.44-1.47-1.22-2.94-1.95-4.31-.77-1.44-2.13-4.14-3.1-5.31-1.2-1.44-3.23-2.95-4.61-4.42-.78-.83-1.55-1.99-2.35-2.78-.16-.16-.49-.63-.72-.3.4.56.74,1.16,1.15,1.73,1.48,2.08,2.77,4.43,4.31,6.56,1.98,2.72,5.51,6.07,6.61,9.19.38,1.08.39,2.27.86,3.34-.71-.27-.54-1.09-.66-1.54-.1-.38-.09-.42-.19-.96-.36-1.84-3.25-5.24-4.49-6.81-1.77-2.24-3.74-4.34-5.54-6.57v-.3s.61.41.61.41c-.97-2.34-3.03-3.99-5.07-5.5s-4.37-2.69-6.43-4.24c.16-.3.5.04.68.14,2.57,1.46,5.16,2.98,7.44,4.88.66.29-.02-1.01-.26-1.24l-7.86-5.04c-.5-.14-.96.58-1.51.49-.21-.04-.56-.4-.9-.52-3.17-1.08-6.45-1.5-9.71-2.19-1.57-.33-3.06-1.05-4.72-.93l.72-.21c1.31-.14,2.53.52,3.76.76,2.53.5,5.09.86,7.6,1.43,1.45.33,2.87,1.03,4.35,1.09Z"/>
      <path d="M61.81,6.55c.32-.25-2.25-1.8-1.75-2.46.26.3.57.79.89,1.02,2.78,2.04,6.61,3.21,9.62,4.89.75.42,1.8,1.05,1.61,2.08-.46-.3-.67-.9-1.03-1.23-.79-.71-6.1-3.1-7.43-3.66-.19-.08-.52-.45-.68-.14.94.83,1.66,2.03,2.54,2.9,2.47,2.45,5.05,4.53,7.43,7.24,1.71,1.96,3.43,4.03,4.62,6.36.43.02.12-.57.04-.76-.44-1.09-1.85-3.16-2.55-4.22-1.09-1.64-2.32-3.31-3.66-4.75-.13-.56.47-.09.6.02,1.9,1.82,3.26,4.86,4.95,6.85l.21-.61c1.82,5.59,2.81,11.41,3.7,17.21-.3.05-.29-.36-.35-.57-.14-.5-.27-1.15-.38-1.67-.8-3.8-1.34-7.68-2.15-11.49-.02-.03-.33.18-.48.15-.36-.08-3.77-4.92-4.46-5.72-1.45-1.7-3.23-3.2-4.71-4.83-.2-.23-1.24-2.14-1.44-1.17l3.28,4.31c-.13.99-1.23-1.07-1.47-1.4-1.59-2.13-3.94-5.57-6.02-7.11-.81-.6-1.93-1.04-2.84-1.67s-1.73-1.46-2.6-2.12c.18-.32.46.07.64.18.57.37,3.44,2.72,3.88,2.38Z"/>
      <path d="M86.09,17.56c1.44,1.48,3.28,3.55,4.74,5.52.13.18.43.2.55.38.3.45-.82.16-.88.12-.17-.12-1.66-2.24-1.79-2.07l2.46,9.84c.65-.23-.58-1.62.41-1.43.07,1.78.14,3.58.81,5.24-.15.89-.29-.68-.6-.53l-.41,10.66-.21-1.43-.42.51c.17-1.4.53-2.9.62-4.3.36-5.64-1.08-12.98-2.98-18.33-.58-1.62-1.33-2.62-2.45-3.9-1.8-2.06-4.04-3.61-6.06-5.43.27-.27.78.27,1.01.43.93.66,2.13,1.59,2.99,2.34s1.46,1.63,2.21,2.39Z"/>
      <path d="M95.07,47.96c-.35.05-.22-.48-.2-.71.21-2.81,1.07-5.83,1.02-8.71-.58-.1-.34.14-.46.45-1.11,2.76-.64,6.11-1.28,8.98-.15.66-.32,1.68-.93,2.04,1-3.52,1-7.4,1.23-11.07l.41,1.23.61-2.34c-1.15-3.25-1.78-6.72-2.98-9.95-.31-.83-.93-1.61-1.17-2.33-.13-.39-.28-.44.15-.76,1.54,3.56,3.6,7.28,4.52,11.06.53,2.18.43,2.36.12,4.43-.38,2.56-.43,5.14-1.05,7.66ZM96.1,38.12l-.76-3.44-.88-2.09.51,2.25,1.13,3.28Z"/>
      <path d="M89.12,30.54l.51-.02c.85,1.13.52,9.37.25,11.13l-.76,2.82c.53-3.37.74-6.73.63-10.16l-.83-2.75c-.24,4.11.52,8.71-.52,12.7-.06.23.01.67-.3.62.32-2.31.48-4.65.52-6.98.08-4.66.12-9-1.29-13.47-.6-1.91-1.47-3.69-2.11-5.58l1.38,2.42c1.09,2.99,2.26,6.07,2.53,9.27Z"/>
      <path d="M75.24,12c2.26,2.35,3.98,5.12,5.87,7.77l.41-.51c.54,1.72,1.49,3.29,2.09,4.99,2.31,6.51,2.39,13.78,2.43,20.63-.25.33-.37,0-.41-.3-.22-1.72.1-3.94,0-5.75-.14-2.78-.69-5.51-1.45-8.19.21-.33.26.16.31.3.15.4.3.8.31,1.23.36.05.2-.46.18-.69-.17-1.58-.89-4.24-1.36-5.82-.31-1.03-1.26-4-1.82-4.75-.23-.3-.77-.51-1.11-.94-2.56-3.28-4.54-7.09-7.81-9.83.2-.33.45.07.62.2.61.51,1.18,1.09,1.73,1.66Z"/>
      <path d="M49.9,8.19l.1-.41c1.11.94,2.69,1.09,4.01,1.64.06.36-.48.21-.67.16-.5-.14-1.06-.76-1.58-.47,2.04,1.24,3.92,4.12,6.06,5.02.09.04.34.05.3-.1-.39-.58-1.2-1.43-1.13-2.15,1.9,2.66,3.73,5.39,5.86,7.88,1.25,1.46,3.28,3.82,4.67,5.02.14.12.57.4.46-.1l-5.34-7.38.41-.21c3.08,4.29,6.28,8.57,8.41,13.43-1.02-1.17-1.5-2.78-2.46-4-1.67-2.11-4.47-4.25-6.35-6.42-1.25-1.44-2.83-4.05-4.02-5.17-.16-.15-.71-.59-.92-.31l1.85,2.05c.08.26-.05.41-.3.3-.38-.16-2.33-2.78-2.93-3.28l-10.42-5.53c-.22-.46.3-.11.45-.04,2.83,1.29,5.52,2.91,8.38,4.14-.08-.28-.57-.73-.79-.95-.58-.56-2.32-2.18-2.93-2.5-1.15-.61-3.02-.68-4.17-1.57-.44-.4-.12-.37.22-.22.41.19,2.67,1.25,2.86,1.14Z"/>
      <path d="M86.66,27.46c.35-.04.39-.2.32.23-.2,1.26.02,4.06.09,5.42.14,3,.39,5.57.21,8.6-.02.41.16.59-.41.51.31-1.68.28-3.7.21-5.44-.22-5.68-2.39-11.74-3.6-17.31-2.84-3.46-5.5-7.7-9.76-9.53,2.42.24,4.67,2.68,6.27,4.4s2.99,3.68,4.41,5.44l-.42.21,2.68,10.95v-3.48Z"/>
      <path d="M35.12,12.29l-.1-.41,1.54.41-.61.3c.69,1.59,11.85,5.56,13.96,6.15s4.57.82,6.61,1.4c.21.06.62.05.57.34-3.91-.28-7.73-1.36-11.4-2.66s-7.42-2.75-10.31-5.3c-1.69.19-3.4.22-5.1.18-1.28-.03-4.07-.05-5.12-.26-.1-.02-.13-.43-.43-.36-.62-.06-.49-.25.02-.21,3.46.28,6.88.6,10.37.42Z"/>
      <path d="M77.41,37.1l-.72-1.85-.31,1.85c-.14-5.18-2.42-9.84-3.65-14.7-.04-.17-.13-.69.16-.36l1.85,4.81-1.64-6.15,1.03,2.35c1.49,4.58,2.24,9.35,3.28,14.04Z"/>
      <path d="M95.07,50.62c-.38.05-.18-.43-.11-.62.34-.94.73-1.64,1-2.69.69-2.67.92-5.47,1.46-8.17.18-.88.74-1.66.75-2.55,0-1.66-1.11-4.54-1.42-6.39-.53-3.11-.43-6.27-1.67-9.29.75.84,1.34,2.9,1.59,4.05.39,1.79.32,3.91.55,5.6s.9,3.35,1.08,4.86c.26,2.06-1.17,8.36-1.73,10.67-.37,1.56-.89,3.07-1.51,4.54Z"/>
      <path d="M81.32,42.42l-2.61-8.15c-.76-3.23-1.09-6.06-2.28-9.2-.56-1.48-1.32-2.89-1.88-4.37.59.49.94,1.43,1.27,2.12,1.25,2.67,2.58,6.24,3.19,9.12.25,1.17.26,2.65.52,3.78.49,2.2,1.78,4.4,1.8,6.71Z"/>
      <path d="M78.67,20.89l.36-.16c1.99,2.96,2.06,6.58,3.05,9.76.37,1.19,1.12,2.38,1.48,3.64.85,2.97.73,6.07,1.04,9.11-.3.04-.37-.54-.39-.73-.31-2.71-.13-5.47-.9-8.12l-.96-2.42c.02,1.13.51,2.27.61,3.39.02.22.16.95-.2.92-.77-3.37-1.13-6.86-1.99-10.21-.15-.59-1.12-3.85-1.33-4.1-.03-.03-.28.16-.48-.02-.62-.57-2.31-3.76-3.03-4.79-.75-1.08-3.08-3.65-3.45-4.55-.04-.09-.05-.34.1-.3,2.24,2.68,4.58,5.4,6.08,8.59Z"/>
      <path d="M102.06,38.32l-.41-2.46c-.15,3.28-1.17,6.63-.86,9.89l-1.81,3.44c1.63-3.65,1.48-7.67,2.11-11.52.26-1.6.82-2.46.77-4.16-.05-1.84-.65-3.64-1.03-5.42.39.06.34.43.43.69,1.07,2.85,1.18,6.56.79,9.55Z"/>
      <path d="M46.82,6.35c.05.31-.45.33-.64.3-1.99-.26-4.74-1.13-6.8-1.61-1.34-.31-3.27-.28-4.34-1.19l-7.52-1.4c1.96-.09,3.96.13,5.86.59,2.53.61,4.96,1.19,7.49,1.76,2,.45,3.96,1.07,5.95,1.55Z"/>
      <path d="M26.8,5.53c2.86.26,5.71,1.81,8.47,2.41,2.15.47,4.29.83,6.46,1.36.46.11,1.03-.24,1.19.33-.28.35-5.42-.99-6.33-1.16-1.44-.28-2.92-.34-4.35-.68l.41-.41c-3.66-1.15-7.43-1.98-11.29-1.44-.01-.19,1.07-.41,1.13-.41,1.37,0,2.99-.12,4.31,0Z"/>
      <path d="M102.93,32.95c.05.09.4.15.54.37,1.14,1.79,1.24,5.56,1.47,7.66l.41-1.74c.11-2.47-.06-4.88-.61-7.27.37.06.35.42.44.69.64,2,.62,5.43.29,7.52-.1.61-.46,1.12-.53,1.72-.11.96.28,1.84.2,2.65-.17,1.82-2.87,7.28-3.86,9.08-.46.83-.93,1.23-1.88,1.5.35-.63,1.15-.82,1.52-1.45,1.12-1.89,3.76-7.67,4.02-9.72.07-.54-.23-.15-.41-.1.23-3.51-.24-7.07-1.24-10.45-.36,0-.23.9-.21,1.14.13,2.41.5,3.47-.45,5.88-.09.22-.06.61-.35.56,1.42-3.66.03-7.3.21-11.07l.46,3.03Z"/>
      <path d="M41.48,10.86c-.13.39-1.19.21-1.51.18-2.19-.25-4.61-1.19-6.87-1.55-2.02-.32-3.99-.38-6.04-.74-1.64-.29-3.7-.78-5.3-1.27-.28-.09-.98-.18-1.03-.51,2.33.37,4.6,1.21,6.94,1.58,1.21.19,2.52.12,3.61.29,3.42.55,6.78,1.4,10.19,2.03Z"/>
      <path d="M24.23,11.68l-1.75.41-11.19.61.78-.35c3.14-.37,6.33-.37,9.47-.56.43-.02.59-.04.23-.32-2.76-.49-5.51-.72-8.33-.62-.53.02-1.05.19-1.62.22-.28.01-1.28.15-1.34-.21,4.69-.5,9.16-.25,13.76.82Z"/>
      <path d="M53.8,18.24l-8.49-4.54-.03-.38,10.37,5.43c-.42.36-1.02-.34-1.41-.4-.57-.1-1.69.13-2.54.04-1.36-.15-3.21-.78-4.53-1.22-2.54-.85-5.58-2.01-7.54-3.84.75.19,1.32.82,2.01,1.17,3.65,1.87,8.07,3.36,12.16,3.75Z"/>
      <path d="M48.25,5.53c-.03.37-1.11.23-1.32.19-3.02-.62-6.5-2.05-9.6-2.72l-7.56-1.37,3.56.23,14.91,3.66Z"/>
      <path d="M62.75,3.77c2.13,1.71,4.54,3.26,7.27,3.81l-2.95-1.87-.03-.38c1.25.82,2.56,1.56,3.87,2.29.76.43,1.76.56,2.19,1.4-1.48-.72-3.08-.9-4.62-1.43-2.07-.71-4.47-2.07-6.06-3.59-.26-.25-.67-.51-.61-.92.04-.04.8.59.94.7Z"/>
      <path d="M17.25,15.78c.04.3-.55.3-.78.35-1.03.19-2.09.29-3.12.47l.2.4c-.92.2-1.87.63-2.79.81-.16.03-.73.09-.39-.19l1.74-.41c-.03-.37-.86-.43-1.13-.43-3.26.07-6.85,1.38-10.16,1.45-.15-.6.04-.27.3-.32,3.21-.62,6.84-1.23,10.09-1.5.41-.03.88.22,1.41.19,1.36-.06,3.15-.95,4.63-.83Z"/>
      <path d="M101.64,34.43l-1.64-3.89c.07,1.87.33,3.76.21,5.64-.02.36-.08,1.34-.42,1.53-.06-2.82.4-6.56-.52-9.22-.27-.77-1.07-1.21-.72-2.05.31.05.39.38.51.62,1.17,2.25,2,4.92,2.57,7.38Z"/>
      <path d="M60.78,12.91c-2.53-.71-4.65-2.78-7.05-3.93l-5.89-2.83c4.73,1.17,8.97,4.06,12.94,6.76Z"/>
      <path d="M54.37,16.64s-.03.59.26.78c-.96-.34-1.61-1.49-2.87-1.44l.41-.3c-.1-.26-1.8-1.47-2.11-1.58-.73-.28-1.68-.26-2.51-.56-1.37-.49-2.55-1.69-4-2.06-.05-.38.43-.18.62-.11,1.65.59,3.2,2.19,5.13,2.36l-5.54-3.69c3.56,1.58,6.89,3.74,9.87,6.24.23.19.64.23.76.35Z"/>
      <path d="M106.58,41.81l.82-1.64c.36-.06.21.48.16.67-.2.69-.73,1.55-.99,2.3-.8,2.3-1.37,4.93-2.3,7.13-.17.41-.33.99-.77,1.18l2.86-8.73.02-7.05.42,3.17-.21,2.98Z"/>
      <path d="M45.38,7.99l-.21.41c2.36.72,4.48,2.38,6.41,3.91.71.57,2.98,2.89,3.56,3.06.89.26-.58-1.38-.21-1.64,2.23,3.7,5.38,6.64,8.22,9.83.44.49,1.1,1.24,1.33,1.85-3.18-3.11-6.34-6.34-8.83-10.04l-.32.42,1.15,1.53c.04.14-.21.15-.31.1-.39-.21-1.64-1.97-2.26-2.46-.38-.3-.94-.33-1.08-.46-.21-.2-.35-1.06-.93-1.45-1.33-.9-4.58-1-6.01-2.39-.29-.38.39-.17.52-.11,1.5.65,2.89,1.57,4.51,1.95.14-.53-.18-.36-.38-.53-2.32-2.02-4.12-2.86-7.02-3.66-2.66-.74-5.28-1.62-8-2.16-.05-.36.46-.2.69-.18,2.95.3,6.09,2,9.17,2.03Z"/>
      <path d="M65.18,11.8c1.62,1.93,3.5,3.72,5.05,5.72.66.86,1.51,1.96,1.85,2.97l-7.18-8.51-2.06-2.97c.98.7,1.6,1.9,2.34,2.79Z"/>
      <path d="M101.85,50.01c-.39.04-.16-.41-.11-.62.43-1.9.96-3.79,1.25-5.72.03-.22.28-.67-.11-.62-.72,2.24-1.05,5.01-2.29,7.04-.13.21-.43.63-.38.03,1.35-2.25,1.57-4.92,2.51-7.33.17-.44.33-1.15.77-1.38-.29,2.89-.81,5.82-1.64,8.61Z"/>
      <path d="M82.34,42.63c-.3-.13-.32-1.03-.38-1.36-.33-2.08-.54-4.19-.91-6.26s-1.16-4.03-1.17-6.11l.6,1.77c.85,3.93,1.63,7.91,1.86,11.96Z"/>
      <polygon points="22.59 13.94 20.03 14.36 12.2 14.35 9.65 13.94 22.59 13.94"/>
      <path d="M84.6,34.64c-.33-.05-.35-.8-.43-1.11-.5-1.87-.81-3.79-1.32-5.66s-1.28-3.66-1.74-5.53l.97,2c.58,1.55,1.01,3.12,1.43,4.72.08.31.36.56.42.81.34,1.44.36,3.28.67,4.76Z"/>
      <path d="M38.81,11.89c-.1.42-.3.33-.61.32-1.92-.05-4.47-.89-6.5-1.12-1.66-.18-3.25-.16-4.9-.23-.25-.01-.76.15-.72-.2,4.28-.44,8.52.56,12.73,1.23Z"/>
      <path d="M36.76,5.33l-.1.4c-3.12-.77-6.45-.69-9.65-.82l-2.98-.41,8.31.2,4.42.61Z"/>
      <path d="M92.81,47.14c-.37.05-.2-.46-.18-.69.1-1.1.31-2.2.38-3.3.15-2.51-.08-5.32.68-7.74.08-.26.25-.94.56-.98-1.1,4.15-.68,8.5-1.44,12.71Z"/>
      <path d="M49.03,1.71l.31.4,2.2.97c.06.33-.26.2-.46.16-1.13-.26-2.36-1.06-3.48-1.45l-6.32-1.78c2.69.04,5.16,1.2,7.75,1.71Z"/>
      <path d="M58.73,20.7s.05.35.2.51c2.62,2.74,5.22,5.51,8.01,8.1-.39.09-.49-.21-.72-.41-2.87-2.4-5.34-5.18-7.9-7.89-.14-.34.28-.41.4-.3Z"/>
      <path d="M97.13,50.01l2.87-11.27c-.45,3.57-1.31,7.19-2.4,10.62-.08.26-.15.6-.47.65Z"/>
      <path d="M28.13,9.63l-.1.4-12.63-1.84c4.28.17,8.5.87,12.73,1.43Z"/>
      <path d="M17.86,14.96l-7.5,1.02h-3.79c-.02-.32.71-.34.93-.36,1.14-.08,2.49.06,3.69-.05,2.22-.21,4.41-.94,6.67-.61Z"/>
      <path d="M96.92,34.02c-.59.1-.34-.13-.44-.47-.59-2.1-1.05-4.24-1.82-6.29l-.4.2-.21-1.23c.24-.05.67.51.62-.11-.09-1.27-1.25-3-1.03-4.4l2,6.3c.05,2.05.93,3.98,1.28,6Z"/>
      <path d="M57.7,2.66l-1.23.41-.1.41-3.33-1.19-2.73-1.47c2.42.83,4.74,2.07,7.39,1.84Z"/>
      <path d="M8.42,18.45c-.04.34-.78.41-1.06.48-1.82.43-3.69.72-5.51,1.16l2.83-.96,3.74-.67Z"/>
      <path d="M5.54,19.68l-5.54,1.84c1.45-1.12,3.72-1.58,5.54-1.84Z"/>
      <path d="M46,14.96l-4.1-2.25c1.11.22,2.68.96,3.63,1.6.27.18.56.23.47.65Z"/>
      <path d="M70.23,32.79l-2.05-4.1c.89,1.14,1.74,2.69,2.05,4.1Z"/>
      <path d="M66.12,25.62l-2.46-3.28c.98.87,1.95,2.06,2.46,3.28Z"/>
      <path d="M63.45,22.13c-.08.09-.89-.79-1.02-.93-.18-.2-1.37-1.59-1.24-1.74.39.21.72.6,1.02.93.18.2,1.37,1.59,1.24,1.74Z"/>
    </g>
  </g>
  <g id="sclera">
    <path class="cls-1" d="M40.72,60.84c-13.08-2.84-17.63-1.42-26.51-4.25-4.16-1.33-2.89,1.3-2.7,2.84.35,2.81,3.47,4.83,4.99,6.96,4.46,5.3,8.4,9.97,14.51,12.6,10.08,3.93,14.44,2.51,30.85.5,1.94-.24,15.28,8.01,9.4,1.36-1.67-1.89-5.83-5.82-7.43-7.86-5.21-4.23-8.18-6.19-14.38-8.97"/>
  </g>
  <g id="iris">
    <path class="cls-2" d="M50.11,67.36c-9.6-8.89-28.05-7.66-22.47,6.12,4.16,10.29,26.47,8.09,22.47-6.12ZM41.86,68.51c2.12,3.56-.71,4.37-3.81,4.43-1.03-.88-2.8-3.51-1.34-4.39,1.41-.68,4.1-1.69,5.14-.03Z"/>
  </g>
  <g id="eye">
    <g>
      <path d="M70.37,79.26c-4.72-5.01-8.62-10.06-14.76-13.59-9.7-5.58-20.47-8.61-31.52-9.95-2.75-.33-5.56-.23-8.28-.65l2.82-1.59c8.26-3.01,18.08-4.44,26.77-2.68,6.46,1.31,11.97,4.92,17.2,8.67.19.13.85.69,1,.53.09-.39-.22-.49-.41-.72-3.95-4.78-13.96-9.64-20.05-10.55-6.97-1.03-19.6.6-25.98,3.68-1.71.83-3.54,2.67-5.36,2.67-3.01,0-6.3-1.15-7.9-3.82l-1.23-2.36c-.31,2.57.91,4.44,2.37,6.36,2.26,2.97,4.95,4.8,7.38,7.41,4.78,5.14,10.38,12.81,16.77,15.89,1.87.9,5.4,2.07,7.44,2.62,8.11,2.22,17.23-.69,25.41-1l9.76,3.89h1.03c2.02-1.77-1.39-3.68-2.47-4.82ZM35.2,62.29c2.8-.03,12.54,3.04,14.14,5.35,2.55,3.68-2.04,10.63-6,11.45-4.27.89-13.21-1.05-15.32-5.29-2.36-4.75,1.01-10.78,6.2-11.46.35-.05.63-.04.98-.05ZM14.37,63.21c-.31-.38-2.83-2.82-2.46-3.19.9.2,1.63.81,2.5,1.09,2.27.73,6.47.89,8.89.77,2.53-.13,4.74-1.03,7.27-.42-.6.69-1.43,1.07-2.06,1.74-3,3.22-3.85,6.28-1.98,10.43.07.16,1.6,2.17.66,1.81-.87-.85-2.25-1.31-3.17-1.96-4.12-2.94-6.56-6.45-9.66-10.27ZM50.26,80.91c-8.87,1.14-17.98-.36-25.24-5.75-.23-.17-.51,0-.39-.53,2.3.91,4.21,2.52,6.51,3.45,6.75,2.73,14.01,2.81,21.18,2.31l-2.06.52ZM66.53,80.84c-.82-.32-3.6-1.38-4.28-1.47-1.87-.26-3.97.39-5.96.42-1.75.03-3.56.16-5.29.19-1.82.03-3.66.07-5.44-.22,2.16-1.6,3.78-2.51,4.73-5.23,1-2.88,1.39-5.98-1.03-8.25-.5-.47-1.41-.45-1.24-1.33,5.7,1.95,11.11,5.94,15.59,9.97,1.01.91,1.95,2.24,2.89,3.07,1.05.94,5.08,3.35,5.57,4.29.13.24.18.5.15.77-.41.4-4.84-1.89-5.69-2.21Z"/>
      <path d="M75.19,71.75c-.61-1.45-2.36-3.15-3.25-4.55-1.15-1.79-1.87-3.83-3.03-5.6-6.9-10.5-18.76-17.56-31.35-18.04h-.82c-3.05.22-8.85,1.22-11.63,2.43-.36.16-.96.36-.88.86,2.04-.76,4.27-.9,6.41-1.29.93-.17,2.02-.56,2.98-.71,6.15-.97,14.75,1.77,20.15,4.77,7.32,4.07,11.58,9.06,16.2,15.85,1.21,1.77,2.49,3.83,3.73,5.51.38.51.92,1.31,1.5,1.58.25-.13.08-.61,0-.82Z"/>
      <path d="M36.95,72.65c.26.14,1.75.55,1.92.52.85-.18-.29-.96-.26-1.29.08-.83,1.25-2.04,2.12-2.2.44.28.08.99.72.82.79-1.54.77-2.94-.7-4.03-1.31-.97-4.12-.26-4.92,1.16-.76,1.35-.27,4.22,1.13,5.01Z"/>
    </g>
  </g>
</svg>